<svg xmlns="http://www.w3.org/2000/svg" viewBox="0 0 100 100"><g data-name="l2"><g data-name="l1"><path fill="#c6c6c6" d="M0 0h100v100H0z"/><path d="M24.409 50.406l2.778 9.332v-9.332h2.093v13.885h-2.248L24.153 55.4v8.891H22.06V50.406zM34.029 50.24a3.319 3.319 0 0 1 3.322 3.322v7.573a3.316 3.316 0 1 1-6.632 0v-7.573a3.317 3.317 0 0 1 3.31-3.322zm1.141 3.277a1.192 1.192 0 0 0-1.2-1.2 1.169 1.169 0 0 0-.853.349 1.142 1.142 0 0 0-.354.846v7.6a1.144 1.144 0 0 0 .354.847 1.169 1.169 0 0 0 .853.349 1.192 1.192 0 0 0 1.2-1.2zM42.322 64.291h-2.093V50.417h2.093zM45.854 64.291h-2.093V50.406h3l1.95 9.974 1.872-9.974h2.885v13.885h-2.089v-8.725l-1.816 8.725H47.88l-2.026-8.7zM57.6 61.1l-.509 3.189H54.91l2.359-13.874h2.879l2.324 13.874h-2.2l-.489-3.189zm1.1-7.5l-.775 5.47h1.55zM67.234 64.468a3.319 3.319 0 0 1-3.322-3.311v-7.573a3.316 3.316 0 1 1 6.632 0v1.583h-2.17V53.54a1.209 1.209 0 0 0-1.207-1.207 1.146 1.146 0 0 0-.847.354 1.176 1.176 0 0 0-.349.853v7.595a1.192 1.192 0 0 0 1.2 1.2 1.175 1.175 0 0 0 .853-.348 1.14 1.14 0 0 0 .354-.845v-2.731h-1.167v-2.1h3.333v4.849a3.307 3.307 0 0 1-3.31 3.311zM71.983 64.291V50.406h5.957v2.1h-3.864V56.3H76.9v2.1h-2.824v3.787h3.864v2.1zM62.326 35.1a34.483 34.483 0 0 0-5.038-.409c-4.841 0-6.3.9-7.514.9s-2.672-.9-7.513-.9a34.486 34.486 0 0 0-5.039.409.58.58 0 0 0-.447.579v1.15a.474.474 0 0 0 .209.39 1.9 1.9 0 0 1 .678 1.1c.162.847.928 3.267 2.058 4.034s6.051 1.371 7.382-.122a10.22 10.22 0 0 0 1.977-3.912.7.7 0 0 1 1.391 0 10.2 10.2 0 0 0 1.977 3.912c1.331 1.493 6.252.888 7.382.122s1.9-3.187 2.057-4.034a1.909 1.909 0 0 1 .678-1.1.473.473 0 0 0 .21-.39v-1.15a.581.581 0 0 0-.448-.579zm-14.9 3.375a5.161 5.161 0 0 1-1.483 2.92 3.358 3.358 0 0 1-2.2.517 7.338 7.338 0 0 1-3.013-.539 5.328 5.328 0 0 1-1.346-4.088c.238-.773 2.244-.849 3.125-.849a14.546 14.546 0 0 1 4.465.578c.177.05.626.274.453 1.456zm11.392 2.9a7.338 7.338 0 0 1-3.013.539 3.36 3.36 0 0 1-2.2-.517 5.157 5.157 0 0 1-1.482-2.92c-.175-1.182.276-1.406.454-1.461a14.541 14.541 0 0 1 4.465-.578c.881 0 2.886.076 3.124.849a5.324 5.324 0 0 1-1.347 4.081z" fill="#5b5b5b"/></g></g></svg>
